<svg width="56px" height="56px" viewBox="0 0 56 56" version="1.1" xmlns="http://www.w3.org/2000/svg" xmlns:xlink="http://www.w3.org/1999/xlink">
    <g id="Page-1" stroke="none" stroke-width="1" fill="none" fill-rule="evenodd">
        <g id="info" transform="translate(-1.000000, -1.000000)" fill-rule="nonzero" fill="#000000">
            <path d="M28.59,56.17 C17.4290677,56.1740445 7.36505144,49.4534397 3.092079,39.1428561 C-1.18089344,28.8322725 1.17895427,16.9628972 9.07092572,9.07092572 C16.9628972,1.17895427 28.8322725,-1.18089344 39.1428561,3.092079 C49.4534397,7.36505144 56.1740445,17.4290677 56.17,28.59 C56.1479698,43.8128788 43.8128788,56.1479698 28.59,56.17 L28.59,56.17 Z M28.59,5 C19.0478267,4.99595499 10.4429881,10.7409087 6.78855326,19.5555666 C3.13411845,28.3702245 5.14990963,38.5183438 11.8958151,45.2671102 C18.6417206,52.0158765 28.7889843,54.0359703 37.605191,50.3852732 C46.4213976,46.7345762 52.1699991,38.1321742 52.17,28.59 C52.1589813,15.5700729 41.6099212,5.01653909 28.59,5 L28.59,5 Z" id="Shape"></path>
            <circle id="Oval" cx="28.59" cy="19.19" r="3.2"></circle>
            <rect id="Rectangle-path" x="26.1" y="24.85" width="4.96" height="16.33"></rect>
        </g>
    </g>
</svg>